<svg aria-hidden="true" style="width:0;height:0;position:absolute;overflow:hidden" xmlns="http://www.w3.org/2000/svg"><defs><symbol id="icon-cow" viewBox="0 0 31 32"><path d="M6 .8c-.3.2-1 1.7-1.2 2.5-.3 1-.5 1.8-.4 2.9 0 1.5.4 2.6 1.3 3.9l.4.6h-.3c-.8 0-2.1.2-3.2.5C1 11.7 0 12.6 0 13.6c0 .3.3 1 .6 1.2a8 8 0 0 0 3.6 1.4l2.4.3v1.4l.2 2.1c.3 1.7 1 3.4 2 4.6l.4.4-.2.4a3 3 0 0 0-.5 1.6c-.1 1.5.8 2.8 2.6 3.7 3.4 1.8 8.7 1.1 10.7-1.4 1-1.2 1.1-2.6.3-3.8L22 25l.4-.5a9 9 0 0 0 1.8-3.2c.3-1 .4-2 .4-3.6v-1.3l2.4-.3a8 8 0 0 0 3.6-1.4c.3-.3.6-.9.6-1.2 0-1.1-1-2-3.1-2.5l-2.6-.4h-.2l.3-.5c.4-.5.9-1.6 1-2.2a9 9 0 0 0-.9-6.5c-.5-.9-.8-1.1-1.2-.7-.1.1-.2.3-.3 1-.5 2.2-1.3 3.9-2.5 5.2l-.5.5H10L9.5 7a11 11 0 0 1-2.4-5.2c-.2-.7-.2-.9-.4-1-.2-.3-.4-.2-.7 0zM6.9 5c.4.8.8 1.6 1.4 2.3l.4.6-.4.3c-.5.3-.9.8-1.2 1.3L7 10l-.3-.5A6.2 6.2 0 0 1 5.8 4c.3-1 .3-1 .6-.2l.5 1.4zm18.3-1.5c.3.8.4 1.5.4 2.4 0 1.4-.3 2.5-1 3.5l-.4.5-.2-.5c-.3-.5-.8-1-1.3-1.3l-.3-.3.3-.4c.8-.8 1.6-2.4 2-3.7L25 3l.2.6zm-3.6 5.3a3 3 0 0 1 1.7 2c0 .5.2.8.4.8l1.3.2c2.2.1 4 .6 4.7 1.2.4.3.3.6 0 .9a9 9 0 0 1-4.6 1.2c-1.2 0-1.4 0-1.6.2l-.1 1.6c0 1.8-.1 2.8-.3 3.7-.3 1.1-1 2.3-1.7 3.2l-.3.3-.6-.3c-.8-.5-1.5-.8-2.4-1-2.6-.6-5.6-.2-7.6 1l-.4.3-.3-.3-1.3-2c-.5-1.3-.7-2.3-.7-4.6 0-2.2.1-2-1.5-2A10 10 0 0 1 1.7 14c-.8-.5-.6-.9.4-1.4 1-.5 2.3-.7 4.2-.9 1.4 0 1.5 0 1.6-.8.2-1 1-2 2-2.2h11.3l.4.1zm-4 15.2c1.8.4 3.1 1.2 3.7 2.1l.2.9c0 .4 0 .5-.2.9-.8 1.6-3.6 2.7-6.6 2.5-3.5-.3-5.8-2.3-4.9-4.2.5-1 2.2-2 4-2.3l.6-.1h1.4l1.9.1z"/><path d="M10.7 12.6c-.4.1-.7.3-1.1.7-.4.3-.4.7-.1 1 .2.2.5.1.8-.1.4-.4.8-.5 1.1-.5.4 0 .7 0 1.2.5.3.2.5.3.8 0 .2 0 .2-.2.2-.4s0-.3-.3-.5c-.7-.8-1.7-1-2.6-.7zm8.3 0c-.5.1-1.1.5-1.4.8-.2.3-.2.6 0 .8.3.3.6.3.9 0 .8-.7 1.4-.7 2.2 0l.5.2c.4 0 .6-.3.6-.7 0-.2-.5-.7-1-1-.7-.3-1.4-.3-1.9-.1zm-7.3 13.5c-.2.2-.3.5-.2.7.1.2.2.3.7.4.2 0 .3.1.4.3.1.3.1.3.7.3h.5v-.2a2 2 0 0 0-.4-1c-.2-.3-.7-.6-1.1-.6l-.6.1zm6.7-.1c-.3.1-.8.6-1 1v1.2c.5.4 1 0 1-.5 0-.3.3-.5.6-.6.4 0 .6-.2.6-.6 0-.5-.5-.6-1.2-.4z"/></symbol><symbol id="icon-weight" viewBox="0 0 26 32"><path d="M10.6.5c-4 .6-7.2 2.8-8.4 5.7-.4 1-.5 1.5-.5 2.6l.1 1.6c.3.8.5 1.3.9 1.9l.3.6-.4.4a12 12 0 0 0 3.3 18l.5.3 12.7-.1.3-.2c1-.6 2.6-2 3.4-3 1.3-1.6 2-3.6 2.4-5.6V19a12.4 12.4 0 0 0-2.9-6.2l.3-.5c.4-.5.7-1.3.9-2 .2-.6.2-2.4 0-3.1a9.2 9.2 0 0 0-5.9-5.9c-.8-.3-2.2-.7-3.2-.8h-3.8zm4.5 1.2c4 .8 6.9 3.2 7.4 6.2.1.6 0 1.8-.2 2.4-.2.6-.5 1.4-1 2l-.3.6.4.6c1.8 2 2.8 4.6 2.8 7.4a10.8 10.8 0 0 1-4.8 9.1l-.6.4H6.6l-.5-.3c-1.7-1-3.2-3-4-4.9a11 11 0 0 1 1.6-11.5l.6-.8-.4-.9a5.6 5.6 0 0 1-1-4c.1-1.4.8-2.5 2-3.6 1.4-1.5 3.5-2.4 6-2.8 1-.1 3.2 0 4.2.1z"/><path d="M11 3c-3 .5-5.4 2.2-6.2 4.4-.2.5-.2.7-.2 1.4s0 .9.2 1.4c0 .3.3.7.4 1 .4.6.6.6 1.4.1A12 12 0 0 1 14 9.7c1.6.2 3.3.7 4.6 1.5.4.3.8.4.9.4.6 0 1.3-1.6 1.3-2.8C20.8 6 18 3.6 14.3 3H11zm3.6 1C16 4.4 17 5 18 5.6c1.2 1 1.8 2.2 1.7 3.4 0 .5-.2 1.2-.3 1.2l-1-.3c-.9-.5-2-.9-3.1-1.1-.7-.2-1-.2-2.5-.2-1.6 0-1.9 0-2.5.2-1.2.2-2 .5-3.2 1-1 .5-1 .5-1.2-.1-.3-.8 0-2 .4-2.8.3-.4 1-1.2 1.5-1.5 1-.7 2-1 3.8-1.4l3.1.1zm-1.2 9.4c-.2.3-.2.5 0 .7.2.2.3.2.8.2 1 .1 2 .4 2.8.9.6.3 1.5 1.2 2 1.8.5 1 1 2.2 1 3.2 0 .3 0 .4.2.5.2.3.5.3.7 0 .2-.1.2-.2.2-.9a7.2 7.2 0 0 0-6.8-6.6h-.7l-.2.2z"/></symbol><symbol id="icon-icecream" viewBox="0 0 16 32"><path d="m8.1.1.2 1.6a3 3 0 0 1-.8 2.1c-.4.5-.9.8-2 1.2a6 6 0 0 0-2.2 1.3c-.6.6-1 1.2-1 2-.2.7 0 1.3.4 1.6l.2.2-.4.2a12 12 0 0 0-2 1.8c-.4.6-.4 1.1 0 1.4h.3l-.3.3c-.3.3-.4.6-.3 1.2L0 16v.7c.2.3.6.7 1 .8l.2.8a131 131 0 0 1 .2 4.6l.2.3c.4.3.7.6.9 1 .2.3.4 1.2 1 4.5L4 31l.3.2c.5.6 1.5.8 3.2.8 1.7 0 2.7-.2 3.3-.8l.2-.2.5-2.1c.9-4.7 1-5 1.7-5.5l.4-.5.2-2.3V18l.1-.4.4-.4c.6-.4.8-.8.8-1.4 0-.7-.5-1.4-1.3-2.1l-.4-.3.2-.3c.8-1.1.3-2.7-1.2-3.7l-.5-.3.2-.2c.8-.8.9-3.2.3-4.8a7 7 0 0 0-2.3-2.9L8.2 0C8 0 8 0 8.1.1zm2 2.3.9 1.1c1 1.4 1.2 3.1.6 4.4-.2.6-1 1.3-1.6 1.8-1 .7-3.3 1.9-5 2.6-2.5 1-4 1.2-4.2.5A108.8 108.8 0 0 0 5.1 9c-1.4.8-2 .6-2-.4 0-.7.5-1.6 1.2-2l1.3-.7c1.8-.7 2.3-1 3-2a5.5 5.5 0 0 0 .8-2.1l.6.6zm1.8 7.6c.5.3 1 .8 1.2 1.2.4.6.2 1.3-.7 2.1-.9 1-2.4 1.8-4.1 2.4-1.6.5-3.1.8-5.3.8H1.7l.9.1c1 .1 3.3 0 4.1-.1a13 13 0 0 0 5.5-2c.3-.3.6-.4.7-.4.3 0 1.2.9 1.4 1.3l.1.6c0 .9-1.2 1.3-3.8 1.6-3.2.4-7.4 0-9.1-.8-.9-.4-1-.6-.8-1.2V15c0-.4 0-.5.2-.6.3-.4.9-.6 3-1.1l2-.7c1.2-.4 3.4-1.5 4.4-2.1.9-.6 1-.7 1.6-.4zm-9 8.2a24.8 24.8 0 0 0 9.3 0h.7v3.3c0 .7-.3 1.2-.5 1.4-.2.1-1.3.3-2.7.3-3 .2-6 0-7-.3-.4-.3-.5-.5-.5-3l.1-1.9.7.2zM4.7 24l1.1.2H6l-.2.3c-.4.3-.9 1-1 1.4-.3.4-.3.5-.6.3l-.3-.2-.1-.9-.2-1c0-.2-.1-.2 1 0zm7.1 0v.3l-.4 2.5a17 17 0 0 1-.8 3.8c-.3.5-1 .8-2.1 1l-1.8-.2 1.2-1.6.8.2c.7.4 1 .4 1 .2s-.2-.4-.6-.7c-.4-.3-.5-.4-.5-.6l.4-.7.8-1.1.3-.6h.3c.6.2.8.2.7 0l-.2-.4-.2-.4.8-1.5.3-.2zm-4.2.5 1.7 1.4-1.5 2.4-.3-.1-1.2-.8-.9-.6.5-1c1-1.6 1-1.5 1.2-1.5.1 0 .3 0 .5.2zm2.6.2-.6.5c-.1 0-.4-.1-.9-.5l-.4-.3H10c.5-.2.5-.2 0 .3zM5 28l2 1c.2.2.2.2 0 .4l-.3.7-.5.8c-.2.4-.3.4-.7.3-.5-.1-.7-.4-.9-.8-.2-.6-.4-2.3-.4-2.6l.8.2z"/></symbol><symbol id="icon-telegram" viewBox="0 0 44 32"><path d="m17.3 21-.6 9c1 0 1.4-.5 1.9-1l4.5-4 9.4 6.4c1.7 1 2.9.5 3.4-1.4L42 3c.6-2.4-.9-3.3-2.6-2.7l-36.2 13c-2.4.7-2.4 2-.4 2.7l9.3 2.7L33.6 6c1-.6 1.9-.2 1.1.4L17.3 21z"/></symbol><symbol id="icon-git" viewBox="0 0 32 32"><path d="M16 0A16 16 0 0 0 0 16c0 7.5 5.3 14.3 12.3 16v-5.3c-.7.2-1.4.2-2 0a4 4 0 0 1-2.4-2c-.3-.5-1-1.2-1.6-1.1l-.2-2c1.4 0 2.7 1 3.4 2.2.4.6.8 1 1.2 1 .5.2 1 .1 1.6 0 .2-1.3.7-1.7 1.1-2.3-4.1-.7-5.8-2.9-6.5-4.6a7.3 7.3 0 0 1 1.2-7v-.2c-.7-2.2.2-4 .2-4.1.8.2 1-.3 3.6 1.3l.4.3h.3c1.1-.3 2.3-.5 3.4-.5s2.3.2 3.4.5h.3c3.2-2 3.1-1.4 4-1.6 0 .1.9 2 .2 4-.1.3 2.8 3 1.2 7.3-.7 1.7-2.4 4-6.5 4.6.5.8 1.2 1.2 1.1 2.9V32c7-1.7 12.3-8.5 12.3-16A16 16 0 0 0 16 0z"/></symbol><symbol id="icon-facebook" viewBox="0 0 16 32"><path d="M14.1 16h-4v14.8H4V16H1v-5.3h3V7.4c0-2.5 1.1-6.2 6.2-6.2h4.5v5h-3.3c-.5 0-1.3.3-1.3 1.5v3h4.6L14 16z"/></symbol><symbol id="menu-close" viewBox="0 0 32 32"><path d="M23.734 10.304 22.23 8.8l-5.963 5.962L10.305 8.8l-1.504 1.504 5.962 5.962-5.962 5.963 1.504 1.504 5.962-5.963 5.963 5.963 1.504-1.504-5.963-5.963 5.963-5.962z"/></symbol><symbol id="icon-Frame-62" viewBox="0 0 82 32"><path d="M81.414 17.414a2 2 0 0 0 0-2.828L68.686 1.858a2 2 0 1 0-2.828 2.828L77.172 16 65.858 27.314a2 2 0 1 0 2.828 2.828l12.728-12.728zM0 18h80v-4H0v4z"/></symbol><symbol id="icon-Arrow-hover" viewBox="0 0 102 32"><path d="M101.414 17.414a2 2 0 0 0 0-2.828L88.686 1.858a2 2 0 1 0-2.828 2.828L97.172 16 85.858 27.314a2 2 0 1 0 2.828 2.828l12.728-12.728zM0 18h100v-4H0v4z"/></symbol><symbol id="icon-Arrow-focus" viewBox="0 0 69 32"><path d="M68.081 17.414a2 2 0 0 0 0-2.829L55.353 1.857a2 2 0 1 0-2.828 2.828l11.314 11.314-11.314 11.314a2 2 0 1 0 2.828 2.828l12.728-12.728zM0 18h66.667v-4H0v4z"/></symbol><symbol id="menu-open" viewBox="0 0 32 32"><path d="M6.4 11.734V9.6h19.2v2.134H6.4zm0 5.332h19.2v-2.133H6.4v2.133zm0 5.334h19.2v-2.134H6.4V22.4z"/></symbol><symbol id="icon-Vector-1" viewBox="0 0 22 32"><path stroke-linejoin="round" stroke-linecap="round" stroke-width="6.4" d="M3.2 3.2 19.04 16 3.2 28.8"/></symbol><symbol id="logo" viewBox="0 0 35 32"><path d="M17.384 14.109c1.632-4.366-1.747-6.756-3.988-8.327-.428-.321-.856-.621-1.204-.895a4.182 4.182 0 0 1-1.307-1.931l-.008-.03a4.14 4.14 0 0 1-.027-2.38l-.007.029a.447.447 0 0 0-.131-.454.461.461 0 0 0-.475-.093l.003-.001a7.624 7.624 0 0 0-2.09 1.231l.012-.01A4.92 4.92 0 0 0 6.76 2.923l-.013.028a4.756 4.756 0 0 0-.509 2.143 5.644 5.644 0 0 0-1.109 1.144 4.126 4.126 0 0 0-.818 2.691v-.01a5.314 5.314 0 0 0-1.472 2.245l-.011.037a5.135 5.135 0 0 0-.26 1.631c0 .38.041.751.117 1.108l-.006-.034c-.271.163-.48.404-.598.692l-.003.01a1.404 1.404 0 0 0-.047.918c.086.301.271.568.526.757s.566.291.884.288h.03v2.483c0 .253.101.494.282.672s.426.278.682.278h.749l1.221 10.43c.025.232.136.446.313.603s.404.242.642.242h5.08c.237 0 .466-.087.643-.243s.29-.371.317-.602l1.221-10.429h.749a.977.977 0 0 0 .682-.278.94.94 0 0 0 .282-.673v-2.483h.029c.387 0 .76-.152 1.033-.421s.428-.637.428-1.019v-.015a1.4 1.4 0 0 0-.428-1.01l-.013.004zM6.388 6.188c.617 2.285 2.998 3.183 5.171 3.987a.47.47 0 0 0 .679-.225l.001-.003a.453.453 0 0 0-.161-.538l-.001-.001a.466.466 0 0 0-.184-.078h-.003c-2.339-.875-4.546-1.689-4.712-4.024a3.845 3.845 0 0 1 .366-1.89l-.01.023a3.937 3.937 0 0 1 1.198-1.475l.01-.007a7.002 7.002 0 0 1 1.045-.708 5.406 5.406 0 0 0 .001.898l-.001-.02a4.964 4.964 0 0 0 1.8 3.467l.008.007c.355.3.797.608 1.285.937 1.127.798 2.407 1.689 3.221 2.897A4.42 4.42 0 0 1 16.914 12c0 .621-.127 1.213-.357 1.75l.011-.029h-1.893c-3.902 0-8.387-1.064-9.274-4.045a3.369 3.369 0 0 1 .01-1.899l-.006.024c.19-.635.54-1.174 1.004-1.589l.003-.003-.022-.021zm3.513 14.395 1.432 1.41-1.432 1.411-1.431-1.419 1.432-1.401zm3.281 3.702L12 25.45l-1.432-1.411L12 22.633l1.242 1.221-.06.43zM9.901 27.52 8.47 26.109l1.432-1.41 1.43 1.41-1.431 1.411zm-.656-3.471L7.814 25.46l-1.191-1.173-.051-.422 1.242-1.221 1.431 1.406zm-2.09 2.06-.287.283-.073-.642.36.359zm-.15 1.445.809-.798 1.572 1.563c.008.031.018.062.029.093H7.103l-.099-.857zm4.986-.799.81.798-.099.845h-2.377l1.667-1.642zm.943-.362-.287-.284.364-.359-.077.642zm.428-3.691-.715-.718.908-.895-.193 1.613zm-1.375-1.36-1.358-1.334h2.716l-1.357 1.334zm-4.176 0-1.358-1.334h2.716l-1.357 1.334zm4.626 9.019H7.36a.034.034 0 0 1-.03-.029l-.12-1.013h5.38l-.115 1.013a.03.03 0 0 1-.012.022.036.036 0 0 1-.023.008h-.004zm3.928-14.71h-1.491a.473.473 0 0 0-.359.118.46.46 0 0 0-.112.529l-.001-.003c.054.119.154.21.276.25l.003.001a.456.456 0 0 0 .193.021h-.002.531v2.483a.033.033 0 0 1-.033.029H4.415a.033.033 0 0 1-.033-.029v-2.483h8.485a.467.467 0 0 0 .301-.148.454.454 0 0 0 0-.619.472.472 0 0 0-.299-.149H3.442a.537.537 0 0 1-.406-.135h.001a.525.525 0 0 1-.173-.387c0-.153.066-.291.172-.385h.001a.532.532 0 0 1 .408-.135h-.002.973a.47.47 0 0 0 .3-.149.454.454 0 0 0 0-.619.466.466 0 0 0-.299-.148H3.56a4.46 4.46 0 0 1 .066-1.97l-.007.031a4.518 4.518 0 0 1 .881-1.743l-.006.008c.3.92 1.07 2.178 2.998 3.179 1.812.933 4.211 1.41 7.128 1.41h1.714a.537.537 0 0 1 .406.135.525.525 0 0 1 .173.387v.001a.53.53 0 0 1-.58.52h.031zm3.494 12.741-.342.525.008.004.335-.529zm3.681.176.627-.013-.017-.724-.714.12.105.617zm.043 1.927.16.606.477-.126-.011-.493-.627.013zm-4.831.093.141-.611h-.004l-.136.611zm-2.385-1.065zm-.862-1.958.626.003v-.003h-.626zm.299-1.369-.562-.277v.002l.562.275zm1.92-1.639.223.586.002-.001-.224-.585zm6.153-.16.624.049.042-.529-.515-.127-.151.607zm-.153 1.964-.116.615.686.131.055-.697-.625-.048zm-1.669-.803c-.94 0-1.731.1-2.307.354-.296.13-.564.313-.76.572a1.46 1.46 0 0 0-.299.89v.016-.001h1.253c0-.073.017-.115.044-.149a.677.677 0 0 1 .267-.181c.337-.148.916-.248 1.802-.248v-1.253zm-3.367 1.831c0 .644.289 1.176.829 1.528l.683-1.049a.51.51 0 0 1-.259-.478h-1.253zm.836 1.532c.511.323 1.187.445 1.944.445v-1.253c-.654 0-1.052-.11-1.274-.251l-.669 1.058zm1.944.446c.743 0 1.469-.061 2.178-.18l-.21-1.235c-.585.103-1.259.163-1.947.163h-.022.001v1.253zm1.447-.784.042 1.927 1.253-.028-.043-1.927-1.252.028zm.509 1.307a9.28 9.28 0 0 1-2.372.285v1.252c.96 0 1.858-.107 2.691-.327l-.319-1.211zm-2.371.285c-.884 0-1.6-.07-2.159-.199l-.281 1.221c.681.157 1.499.23 2.44.23v-1.252zm-2.164-.199c-.598-.133-1.029-.275-1.317-.416l-.55 1.125c.413.202.952.371 1.594.514l.273-1.223zm-1.317-.416a3.84 3.84 0 0 1-.806-.518l.006.005-.81.955c.313.265.668.493 1.061.684l.549-1.125zm-.8-.515c-.426-.36-.644-.83-.64-1.476l-1.253-.006c-.005.985.352 1.819 1.085 2.438l.808-.957zm-.64-1.48c0-.421.082-.781.236-1.095l-1.126-.551a3.64 3.64 0 0 0-.364 1.6v.048-.002h1.252zm.235-1.093c.285-.579.788-1.029 1.581-1.331l-.445-1.171c-1.034.392-1.811 1.036-2.26 1.948l1.124.553zm1.583-1.33c.833-.32 1.763-.485 2.796-.485v-1.252c-1.168 0-2.252.186-3.245.568l.45 1.17zm2.796-.485c1.054 0 2.047.118 2.981.349l.301-1.215a13.27 13.27 0 0 0-3.216-.386h-.069.004v1.253zm2.507-.308-.152 1.963 1.249.098.152-1.964-1.248-.097zm.589 1.397a9.48 9.48 0 0 0-1.78-.189h-.006v1.253c.44 0 .957.053 1.553.166l.233-1.229zm6.11 1-.003.627.637.003-.007-.637-.627.007zm-.269-.813-.426.459.006.005.421-.463zm-1.559.061.434.452.004-.005-.438-.447zm-.379.74-.618-.101-.12.723.733.004.003-.627zm4.604 3.339.379.499.225-.171.021-.281-.625-.047zm-1.351.502-.135-.612-.003.001.138.611zm-4.697-.172-.213.589.005.002.208-.591zm-1.07-.568-.389.491.008.006.381-.497zm-.716-.899-.562.278.002.003.56-.28zm.734-3.798zm5.724-.679.25-.574-.006-.003-.244.577zm1.437 1.321-.563.274.002.003.561-.278zm.245 1.095.625.045.002-.023v-.023h-.627zm-.073 1.009-.003.627.585.003.042-.584-.624-.045zm-4.96-.025.003-.627-.817-.003.208.79.605-.16zm.71.875-.309.545.003.002.306-.547zm3.804-.214v-.626h-.125l-.115.048.241.578zm.33 0 .625.047.051-.674h-.675v.627zm-1.887-1.781c-.005-.453-.109-.939-.475-1.271l-.842.928c-.007-.007.008.002.025.056.019.057.037.153.039.301l1.253-.013zm-.47-1.265c-.328-.305-.76-.406-1.185-.406v1.253c.244 0 .318.059.333.071l.852-.918zm-1.184-.406c-.467 0-.9.147-1.24.479l.877.894c.068-.067.168-.12.362-.12v-1.253zm-1.236.474a1.901 1.901 0 0 0-.562 1.08l-.001.011 1.236.203a.66.66 0 0 1 .195-.39l-.867-.904zm.052 1.819 2.208.012.007-1.252-2.208-.013-.007 1.252zm4.23 2.214c-.137.104-.472.248-1.108.388l.269 1.224c.661-.146 1.227-.335 1.595-.615l-.756-.997zm-1.111.389a7.72 7.72 0 0 1-1.75.205h-.002v1.253c.662 0 1.339-.08 2.028-.236l-.276-1.221zm-1.752.204c-.59 0-1.076-.028-1.464-.08l-.168 1.241a12.45 12.45 0 0 0 1.631.092v-1.253zm-1.463-.08a5.721 5.721 0 0 1-1.135-.275l-.417 1.181c.455.16.917.273 1.384.335l.168-1.241zm-1.13-.273a3.324 3.324 0 0 1-.911-.483l.009.006-.762.994a4.54 4.54 0 0 0 1.238.66l.427-1.177zm-.896-.472a2.017 2.017 0 0 1-.539-.675l-.005-.012-1.12.56c.22.441.514.815.887 1.11l.777-.982zm-.543-.684c-.131-.267-.211-.61-.211-1.05h-1.253c0 .588.105 1.129.34 1.605l1.123-.556zm-.21-1.051c0-.44.08-.829.23-1.176l-1.149-.499a4.096 4.096 0 0 0-.334 1.634v.043-.002h1.253zm.23-1.175c.158-.364.351-.632.57-.827l-.834-.936a3.57 3.57 0 0 0-.885 1.264l1.149.499zm.57-.828c.674-.6 1.7-.947 3.179-.947v-1.253c-1.659 0-3.03.39-4.013 1.266l.834.935zm3.179-.947c.664 0 1.29.126 1.884.378l.489-1.154a5.918 5.918 0 0 0-2.35-.478h-.025.001v1.253zm1.878.375c.555.242.913.584 1.125 1.021l1.126-.547c-.359-.739-.958-1.276-1.75-1.622l-.501 1.149zm1.126 1.024c.117.237.179.505.179.817h1.253c0-.487-.101-.947-.31-1.371l-1.123.554zm.181.772-.073 1.009 1.25.091.073-1.009-1.25-.091zm.555.428-4.96-.024-.007 1.253 4.96.024.007-1.253zm-5.569.762c.147.555.504.976 1.007 1.26l.616-1.091c-.248-.14-.362-.302-.412-.488l-1.211.319zm1.009 1.262c.509.284 1.144.397 1.853.397v-1.252c-.595 0-.99-.099-1.241-.239l-.611 1.094zm1.853.397c.762 0 1.599-.206 2.499-.58l-.482-1.156c-.805.335-1.474.484-2.016.484v1.252zm2.257-.532h.331v-1.252h-.33v1.252zm-.294-.673-.116 1.554 1.25.093.116-1.553-1.25-.093z"/></symbol><symbol id="menu-shut" viewBox="0 0 32 32"><path d="M23.734 10.304 22.23 8.8l-5.963 5.962L10.305 8.8l-1.504 1.504 5.962 5.962-5.962 5.963 1.504 1.504 5.962-5.963 5.963 5.963 1.504-1.504-5.963-5.963 5.963-5.962z"/></symbol><symbol id="menu-open" viewBox="0 0 32 32"><path d="M6.4 11.734V9.6h19.2v2.134H6.4zm0 5.332h19.2v-2.133H6.4v2.133zm0 5.334h19.2v-2.134H6.4V22.4z"/></symbol><symbol id="mark" viewBox="0 0 12 12"><path stroke-linejoin="round" stroke-linecap="round" stroke-width="6.4" d="M3.2 3.2 19.04 16 3.2 28.8"/></symbol></defs></svg>