<svg version="1.0" xmlns="http://www.w3.org/2000/svg" width="682.667" height="682.667" viewBox="0 0 512 512"><path d="M230.9.4c-.2.2-3.3.6-6.9 1-10.9 1.1-23 3.1-31.5 5.3-3.3.8-6.8 1.7-7.7 1.9-1 .2-2.6.6-3.5.8-7.6 1.8-28.5 10.1-41.2 16.3-42.8 20.9-79.3 54.1-103.5 94.1C26.2 136.9 16 159 12.4 172c-.2.8-1.7 6.2-3.4 12s-3.3 12-3.5 13.9c-.2 1.8-.7 4.1-.9 5-.8 2.5-1.6 7.7-3.1 19.1-1.3 10.7-1.4 61.7 0 69 .3 1.9 1.3 7.8 2.1 13s1.9 10.8 2.4 12.5c.5 1.6 1.1 4.3 1.4 5.8 1.7 9.7 9.2 30.6 16.8 46.7 12.2 25.9 28.1 48.4 48.8 69 7.4 7.4 14.6 14.3 15.9 15.4 21.5 16.7 32.1 23.5 51.6 33.1 21.6 10.6 48.6 19.3 68 22.1 2.8.3 5.9.8 7 1.1 9.1 1.8 57.5 2.6 72 1.1 8.3-.9 22.5-3.3 31.5-5.4 3.6-.9 7.3-1.7 8.3-1.9 1-.2 8-2.5 15.5-5.1 28.4-9.6 56.7-25.5 80.8-45.6 4-3.3 23.2-22.4 27.9-27.8 18-20.4 35.9-51.2 45.9-78.8 6.4-17.5 11.6-40.6 13.4-59.7 1.5-15.5.6-65.3-1.3-72.5-.2-.8-.6-3.1-.9-5-5.9-39.3-25.2-82.4-51.7-115.5-8.8-11-27.6-29.8-38.4-38.4-8.7-7-28.8-20.4-35.1-23.6-2.1-1-4.6-2.4-5.4-3-3-2.2-20.8-9.9-32.7-14.1-11.8-4.2-24.1-7.7-31.3-8.9-1.9-.3-4.2-.8-5-1-1.7-.5-5-1-12.5-2.1-2.7-.3-5.9-.9-7-1.1-2.2-.6-58.1-1.4-58.6-.9z"/></svg>