<svg aria-hidden="true" style="position:absolute;width:0;height:0;overflow:hidden" xmlns="http://www.w3.org/2000/svg">
  <defs>
    <symbol id="icon-cow" viewBox="0 0 31 32">
      <path d="M6 .8c-.3.2-1 1.7-1.2 2.5-.3 1-.5 1.8-.4 2.9 0 1.5.4 2.6 1.3 3.9l.4.6h-.3c-.8 0-2.1.2-3.2.5C1 11.7 0 12.6 0 13.6c0 .3.3 1 .6 1.2a8 8 0 0 0 3.6 1.4l2.4.3v1.4l.2 2.1c.3 1.7 1 3.4 2 4.6l.4.4-.2.4a3 3 0 0 0-.5 1.6c-.1 1.5.8 2.8 2.6 3.7 3.4 1.8 8.7 1.1 10.7-1.4 1-1.2 1.1-2.6.3-3.8L22 25l.4-.5a9 9 0 0 0 1.8-3.2c.3-1 .4-2 .4-3.6v-1.3l2.4-.3a8 8 0 0 0 3.6-1.4c.3-.3.6-.9.6-1.2 0-1.1-1-2-3.1-2.5l-2.6-.4h-.2l.3-.5c.4-.5.9-1.6 1-2.2a9 9 0 0 0-.9-6.5c-.5-.9-.8-1.1-1.2-.7-.1.1-.2.3-.3 1-.5 2.2-1.3 3.9-2.5 5.2l-.5.5H10L9.5 7a11 11 0 0 1-2.4-5.2c-.2-.7-.2-.9-.4-1-.2-.3-.4-.2-.7 0zM6.9 5c.4.8.8 1.6 1.4 2.3l.4.6-.4.3c-.5.3-.9.8-1.2 1.3L7 10l-.3-.5A6.2 6.2 0 0 1 5.8 4c.3-1 .3-1 .6-.2l.5 1.4zm18.3-1.5c.3.8.4 1.5.4 2.4 0 1.4-.3 2.5-1 3.5l-.4.5-.2-.5c-.3-.5-.8-1-1.3-1.3l-.3-.3.3-.4c.8-.8 1.6-2.4 2-3.7L25 3l.2.6zm-3.6 5.3a3 3 0 0 1 1.7 2c0 .5.2.8.4.8l1.3.2c2.2.1 4 .6 4.7 1.2.4.3.3.6 0 .9a9 9 0 0 1-4.6 1.2c-1.2 0-1.4 0-1.6.2l-.1 1.6c0 1.8-.1 2.8-.3 3.7-.3 1.1-1 2.3-1.7 3.2l-.3.3-.6-.3c-.8-.5-1.5-.8-2.4-1-2.6-.6-5.6-.2-7.6 1l-.4.3-.3-.3-1.3-2c-.5-1.3-.7-2.3-.7-4.6 0-2.2.1-2-1.5-2A10 10 0 0 1 1.7 14c-.8-.5-.6-.9.4-1.4 1-.5 2.3-.7 4.2-.9 1.4 0 1.5 0 1.6-.8.2-1 1-2 2-2.2h11.3l.4.1zm-4 15.2c1.8.4 3.1 1.2 3.7 2.1l.2.9c0 .4 0 .5-.2.9-.8 1.6-3.6 2.7-6.6 2.5-3.5-.3-5.8-2.3-4.9-4.2.5-1 2.2-2 4-2.3l.6-.1h1.4l1.9.1z"/>
      <path d="M10.7 12.6c-.4.1-.7.3-1.1.7-.4.3-.4.7-.1 1 .2.2.5.1.8-.1.4-.4.8-.5 1.1-.5.4 0 .7 0 1.2.5.3.2.5.3.8 0 .2 0 .2-.2.2-.4s0-.3-.3-.5c-.7-.8-1.7-1-2.6-.7zM19 12.6c-.5.1-1.1.5-1.4.8-.2.3-.2.6 0 .8.3.3.6.3.9 0 .8-.7 1.4-.7 2.2 0l.5.2c.4 0 .6-.3.6-.7 0-.2-.5-.7-1-1-.7-.3-1.4-.3-1.9-.1zM11.7 26.1c-.2.2-.3.5-.2.7.1.2.2.3.7.4.2 0 .3.1.4.3.1.3.1.3.7.3h.5v-.2a2 2 0 0 0-.4-1c-.2-.3-.7-.6-1.1-.6l-.6.1zM18.4 26c-.3.1-.8.6-1 1v1.2c.5.4 1 0 1-.5 0-.3.3-.5.6-.6.4 0 .6-.2.6-.6 0-.5-.5-.6-1.2-.4z"/>
    </symbol>
    <symbol id="icon-weight" viewBox="0 0 26 32">
      <path d="M10.6.5c-4 .6-7.2 2.8-8.4 5.7-.4 1-.5 1.5-.5 2.6l.1 1.6c.3.8.5 1.3.9 1.9l.3.6-.4.4a12 12 0 0 0 3.3 18l.5.3 12.7-.1.3-.2c1-.6 2.6-2 3.4-3 1.3-1.6 2-3.6 2.4-5.6V19a12.4 12.4 0 0 0-2.9-6.2l.3-.5c.4-.5.7-1.3.9-2 .2-.6.2-2.4 0-3.1a9.2 9.2 0 0 0-5.9-5.9c-.8-.3-2.2-.7-3.2-.8h-3.8zm4.5 1.2c4 .8 6.9 3.2 7.4 6.2.1.6 0 1.8-.2 2.4-.2.6-.5 1.4-1 2l-.3.6.4.6c1.8 2 2.8 4.6 2.8 7.4a10.8 10.8 0 0 1-4.8 9.1l-.6.4H6.6l-.5-.3c-1.7-1-3.2-3-4-4.9a11 11 0 0 1 1.6-11.5l.6-.8-.4-.9a5.6 5.6 0 0 1-1-4c.1-1.4.8-2.5 2-3.6 1.4-1.5 3.5-2.4 6-2.8 1-.1 3.2 0 4.2.1z"/>
      <path d="M11 3c-3 .5-5.4 2.2-6.2 4.4-.2.5-.2.7-.2 1.4s0 .9.2 1.4c0 .3.3.7.4 1 .4.6.6.6 1.4.1A12 12 0 0 1 14 9.7c1.6.2 3.3.7 4.6 1.5.4.3.8.4.9.4.6 0 1.3-1.6 1.3-2.8C20.8 6 18 3.6 14.3 3H11zM14.6 4C16 4.4 17 5 18 5.6c1.2 1 1.8 2.2 1.7 3.4 0 .5-.2 1.2-.3 1.2l-1-.3c-.9-.5-2-.9-3.1-1.1-.7-.2-1-.2-2.5-.2-1.6 0-1.9 0-2.5.2-1.2.2-2 .5-3.2 1-1 .5-1 .5-1.2-.1-.3-.8 0-2 .4-2.8.3-.4 1-1.2 1.5-1.5 1-.7 2-1 3.8-1.4l3.1.1zM13.4 13.4c-.2.3-.2.5 0 .7.2.2.3.2.8.2 1 .1 2 .4 2.8.9.6.3 1.5 1.2 2 1.8.5 1 1 2.2 1 3.2 0 .3 0 .4.2.5.2.3.5.3.7 0 .2-.1.2-.2.2-.9a7.2 7.2 0 0 0-6.8-6.6h-.7l-.2.2z"/>
    </symbol>
    <symbol id="icon-icecream" viewBox="0 0 16 32">
      <path d="m8.1.1.2 1.6a3 3 0 0 1-.8 2.1c-.4.5-.9.8-2 1.2a6 6 0 0 0-2.2 1.3c-.6.6-1 1.2-1 2-.2.7 0 1.3.4 1.6l.2.2-.4.2a12 12 0 0 0-2 1.8c-.4.6-.4 1.1 0 1.4h.3l-.3.3c-.3.3-.4.6-.3 1.2L0 16v.7c.2.3.6.7 1 .8l.2.8a131 131 0 0 1 .2 4.6l.2.3c.4.3.7.6.9 1 .2.3.4 1.2 1 4.5l.5 2.3.3.2c.5.6 1.5.8 3.2.8 1.7 0 2.7-.2 3.3-.8l.2-.2.5-2.1c.9-4.7 1-5 1.7-5.5l.4-.5.2-2.3V18l.1-.4.4-.4c.6-.4.8-.8.8-1.4 0-.7-.5-1.4-1.3-2.1l-.4-.3.2-.3c.8-1.1.3-2.7-1.2-3.7l-.5-.3.2-.2c.8-.8.9-3.2.3-4.8a7 7 0 0 0-2.3-2.9L8.2 0C8 0 8 0 8.1.1zm2 2.3.9 1.1c1 1.4 1.2 3.1.6 4.4-.2.6-1 1.3-1.6 1.8-1 .7-3.3 1.9-5 2.6-2.5 1-4 1.2-4.2.5A108.8 108.8 0 0 0 5.1 9c-1.4.8-2 .6-2-.4 0-.7.5-1.6 1.2-2l1.3-.7c1.8-.7 2.3-1 3-2a5.5 5.5 0 0 0 .8-2.1l.6.6zm1.8 7.6c.5.3 1 .8 1.2 1.2.4.6.2 1.3-.7 2.1-.9 1-2.4 1.8-4.1 2.4-1.6.5-3.1.8-5.3.8H1.7l.9.1c1 .1 3.3 0 4.1-.1a13 13 0 0 0 5.5-2c.3-.3.6-.4.7-.4.3 0 1.2.9 1.4 1.3l.1.6c0 .9-1.2 1.3-3.8 1.6-3.2.4-7.4 0-9.1-.8-.9-.4-1-.6-.8-1.2V15c0-.4 0-.5.2-.6.3-.4.9-.6 3-1.1l2-.7c1.2-.4 3.4-1.5 4.4-2.1.9-.6 1-.7 1.6-.4zm-9 8.2a24.8 24.8 0 0 0 9.3 0h.7v3.3c0 .7-.3 1.2-.5 1.4-.2.1-1.3.3-2.7.3-3 .2-6 0-7-.3-.4-.3-.5-.5-.5-3l.1-1.9.7.2zM4.7 24l1.1.2H6l-.2.3c-.4.3-.9 1-1 1.4-.3.4-.3.5-.6.3l-.3-.2-.1-.9-.2-1c0-.2-.1-.2 1 0zm7.1 0v.3l-.4 2.5a17 17 0 0 1-.8 3.8c-.3.5-1 .8-2.1 1l-1.8-.2 1.2-1.6.8.2c.7.4 1 .4 1 .2s-.2-.4-.6-.7c-.4-.3-.5-.4-.5-.6l.4-.7.8-1.1.3-.6h.3c.6.2.8.2.7 0l-.2-.4-.2-.4.8-1.5.3-.2zm-4.2.5 1.7 1.4-1.5 2.4-.3-.1-1.2-.8-.9-.6.5-1c1-1.6 1-1.5 1.2-1.5.1 0 .3 0 .5.2zm2.6.2-.6.5c-.1 0-.4-.1-.9-.5l-.4-.3H10c.5-.2.5-.2 0 .3zM5 28l2 1c.2.2.2.2 0 .4l-.3.7-.5.8c-.2.4-.3.4-.7.3-.5-.1-.7-.4-.9-.8-.2-.6-.4-2.3-.4-2.6l.8.2z"/>
    </symbol>
    <symbol id="icon-telegram" viewBox="0 0 44 32">
      <path  d="m17.3 21-.6 9c1 0 1.4-.5 1.9-1l4.5-4 9.4 6.4c1.7 1 2.9.5 3.4-1.4L42 3c.6-2.4-.9-3.3-2.6-2.7l-36.2 13C.8 14 .8 15.3 2.8 16l9.3 2.7L33.6 6c1-.6 1.9-.2 1.1.4L17.3 21z"/>
    </symbol>
    <symbol id="icon-git" viewBox="0 0 32 32">
      <path  d="M16 0A16 16 0 0 0 0 16c0 7.5 5.3 14.3 12.3 16v-5.3c-.7.2-1.4.2-2 0a4 4 0 0 1-2.4-2c-.3-.5-1-1.2-1.6-1.1l-.2-2c1.4 0 2.7 1 3.4 2.2.4.6.8 1 1.2 1 .5.2 1 .1 1.6 0 .2-1.3.7-1.7 1.1-2.3-4.1-.7-5.8-2.9-6.5-4.6a7.3 7.3 0 0 1 1.2-7v-.2c-.7-2.2.2-4 .2-4.1.8.2 1-.3 3.6 1.3l.4.3h.3c1.1-.3 2.3-.5 3.4-.5s2.3.2 3.4.5H19.7c3.2-2 3.1-1.4 4-1.6 0 .1.9 2 .2 4-.1.3 2.8 3 1.2 7.3-.7 1.7-2.4 4-6.5 4.6.5.8 1.2 1.2 1.1 2.9V32c7-1.7 12.3-8.5 12.3-16A16 16 0 0 0 16 0z"/>
    </symbol>
    <symbol id="icon-facebook" viewBox="0 0 16 32">
      <path  d="M14.1 16h-4v14.8H4V16H1v-5.3h3V7.4c0-2.5 1.1-6.2 6.2-6.2h4.5v5h-3.3c-.5 0-1.3.3-1.3 1.5v3h4.6L14 16z"/>
    </symbol>
    <symbol id="menu-close" viewBox="0 0 32 32">
      <path d="M23.734 10.304l-1.504-1.504-5.963 5.962-5.962-5.962-1.504 1.504 5.962 5.962-5.962 5.963 1.504 1.504 5.962-5.963 5.963 5.963 1.504-1.504-5.963-5.963 5.963-5.962z"></path>
      </symbol>
      <symbol id="icon-Frame-62" viewBox="0 0 82 32">
<path d="M81.414 17.414c0.781-0.781 0.781-2.047 0-2.828l-12.728-12.728c-0.781-0.781-2.047-0.781-2.828 0s-0.781 2.047 0 2.828l11.314 11.314-11.314 11.314c-0.781 0.781-0.781 2.047 0 2.828s2.047 0.781 2.828 0l12.728-12.728zM0 18h80v-4h-80v4z"></path>
</symbol>
<symbol id="icon-Arrow-hover" viewBox="0 0 102 32">
<path d="M101.414 17.414c0.781-0.781 0.781-2.047 0-2.828l-12.728-12.728c-0.781-0.781-2.047-0.781-2.828 0s-0.781 2.047 0 2.828l11.314 11.314-11.314 11.314c-0.781 0.781-0.781 2.047 0 2.828s2.047 0.781 2.828 0l12.728-12.728zM0 18h100v-4h-100v4z"></path>
</symbol>
<symbol id="icon-Arrow-focus" viewBox="0 0 69 32">
<path d="M68.081 17.414c0.781-0.781 0.781-2.047 0-2.829l-12.728-12.728c-0.781-0.781-2.047-0.781-2.828 0s-0.781 2.047 0 2.828l11.314 11.314-11.314 11.314c-0.781 0.781-0.781 2.047 0 2.828s2.047 0.781 2.828 0l12.728-12.728zM0 18h66.667v-4h-66.667v4z"></path>
</symbol>
      <symbol id="menu-open" viewBox="0 0 32 32">
        <path d="M6.4 11.734v-2.134h19.2v2.134h-19.2zM6.4 17.066h19.2v-2.133h-19.2v2.133zM6.4 22.4h19.2v-2.134h-19.2v2.134z"></path>
      </symbol>
  </defs>
</svg>
