<svg aria-hidden="true" style="position:absolute;width:0;height:0;overflow:hidden" xmlns="http://www.w3.org/2000/svg">
  <defs>
    <symbol id="icon-cow" viewBox="0 0 31 32">
      <path d="M6 .8c-.3.2-1 1.7-1.2 2.5-.3 1-.5 1.8-.4 2.9 0 1.5.4 2.6 1.3 3.9l.4.6h-.3c-.8 0-2.1.2-3.2.5C1 11.7 0 12.6 0 13.6c0 .3.3 1 .6 1.2a8 8 0 0 0 3.6 1.4l2.4.3v1.4l.2 2.1c.3 1.7 1 3.4 2 4.6l.4.4-.2.4a3 3 0 0 0-.5 1.6c-.1 1.5.8 2.8 2.6 3.7 3.4 1.8 8.7 1.1 10.7-1.4 1-1.2 1.1-2.6.3-3.8L22 25l.4-.5a9 9 0 0 0 1.8-3.2c.3-1 .4-2 .4-3.6v-1.3l2.4-.3a8 8 0 0 0 3.6-1.4c.3-.3.6-.9.6-1.2 0-1.1-1-2-3.1-2.5l-2.6-.4h-.2l.3-.5c.4-.5.9-1.6 1-2.2a9 9 0 0 0-.9-6.5c-.5-.9-.8-1.1-1.2-.7-.1.1-.2.3-.3 1-.5 2.2-1.3 3.9-2.5 5.2l-.5.5H10L9.5 7a11 11 0 0 1-2.4-5.2c-.2-.7-.2-.9-.4-1-.2-.3-.4-.2-.7 0zM6.9 5c.4.8.8 1.6 1.4 2.3l.4.6-.4.3c-.5.3-.9.8-1.2 1.3L7 10l-.3-.5A6.2 6.2 0 0 1 5.8 4c.3-1 .3-1 .6-.2l.5 1.4zm18.3-1.5c.3.8.4 1.5.4 2.4 0 1.4-.3 2.5-1 3.5l-.4.5-.2-.5c-.3-.5-.8-1-1.3-1.3l-.3-.3.3-.4c.8-.8 1.6-2.4 2-3.7L25 3l.2.6zm-3.6 5.3a3 3 0 0 1 1.7 2c0 .5.2.8.4.8l1.3.2c2.2.1 4 .6 4.7 1.2.4.3.3.6 0 .9a9 9 0 0 1-4.6 1.2c-1.2 0-1.4 0-1.6.2l-.1 1.6c0 1.8-.1 2.8-.3 3.7-.3 1.1-1 2.3-1.7 3.2l-.3.3-.6-.3c-.8-.5-1.5-.8-2.4-1-2.6-.6-5.6-.2-7.6 1l-.4.3-.3-.3-1.3-2c-.5-1.3-.7-2.3-.7-4.6 0-2.2.1-2-1.5-2A10 10 0 0 1 1.7 14c-.8-.5-.6-.9.4-1.4 1-.5 2.3-.7 4.2-.9 1.4 0 1.5 0 1.6-.8.2-1 1-2 2-2.2h11.3l.4.1zm-4 15.2c1.8.4 3.1 1.2 3.7 2.1l.2.9c0 .4 0 .5-.2.9-.8 1.6-3.6 2.7-6.6 2.5-3.5-.3-5.8-2.3-4.9-4.2.5-1 2.2-2 4-2.3l.6-.1h1.4l1.9.1z"/>
      <path d="M10.7 12.6c-.4.1-.7.3-1.1.7-.4.3-.4.7-.1 1 .2.2.5.1.8-.1.4-.4.8-.5 1.1-.5.4 0 .7 0 1.2.5.3.2.5.3.8 0 .2 0 .2-.2.2-.4s0-.3-.3-.5c-.7-.8-1.7-1-2.6-.7zM19 12.6c-.5.1-1.1.5-1.4.8-.2.3-.2.6 0 .8.3.3.6.3.9 0 .8-.7 1.4-.7 2.2 0l.5.2c.4 0 .6-.3.6-.7 0-.2-.5-.7-1-1-.7-.3-1.4-.3-1.9-.1zM11.7 26.1c-.2.2-.3.5-.2.7.1.2.2.3.7.4.2 0 .3.1.4.3.1.3.1.3.7.3h.5v-.2a2 2 0 0 0-.4-1c-.2-.3-.7-.6-1.1-.6l-.6.1zM18.4 26c-.3.1-.8.6-1 1v1.2c.5.4 1 0 1-.5 0-.3.3-.5.6-.6.4 0 .6-.2.6-.6 0-.5-.5-.6-1.2-.4z"/>
    </symbol>
    <symbol id="icon-weight" viewBox="0 0 26 32">
      <path d="M10.6.5c-4 .6-7.2 2.8-8.4 5.7-.4 1-.5 1.5-.5 2.6l.1 1.6c.3.8.5 1.3.9 1.9l.3.6-.4.4a12 12 0 0 0 3.3 18l.5.3 12.7-.1.3-.2c1-.6 2.6-2 3.4-3 1.3-1.6 2-3.6 2.4-5.6V19a12.4 12.4 0 0 0-2.9-6.2l.3-.5c.4-.5.7-1.3.9-2 .2-.6.2-2.4 0-3.1a9.2 9.2 0 0 0-5.9-5.9c-.8-.3-2.2-.7-3.2-.8h-3.8zm4.5 1.2c4 .8 6.9 3.2 7.4 6.2.1.6 0 1.8-.2 2.4-.2.6-.5 1.4-1 2l-.3.6.4.6c1.8 2 2.8 4.6 2.8 7.4a10.8 10.8 0 0 1-4.8 9.1l-.6.4H6.6l-.5-.3c-1.7-1-3.2-3-4-4.9a11 11 0 0 1 1.6-11.5l.6-.8-.4-.9a5.6 5.6 0 0 1-1-4c.1-1.4.8-2.5 2-3.6 1.4-1.5 3.5-2.4 6-2.8 1-.1 3.2 0 4.2.1z"/>
      <path d="M11 3c-3 .5-5.4 2.2-6.2 4.4-.2.5-.2.7-.2 1.4s0 .9.2 1.4c0 .3.3.7.4 1 .4.6.6.6 1.4.1A12 12 0 0 1 14 9.7c1.6.2 3.3.7 4.6 1.5.4.3.8.4.9.4.6 0 1.3-1.6 1.3-2.8C20.8 6 18 3.6 14.3 3H11zM14.6 4C16 4.4 17 5 18 5.6c1.2 1 1.8 2.2 1.7 3.4 0 .5-.2 1.2-.3 1.2l-1-.3c-.9-.5-2-.9-3.1-1.1-.7-.2-1-.2-2.5-.2-1.6 0-1.9 0-2.5.2-1.2.2-2 .5-3.2 1-1 .5-1 .5-1.2-.1-.3-.8 0-2 .4-2.8.3-.4 1-1.2 1.5-1.5 1-.7 2-1 3.8-1.4l3.1.1zM13.4 13.4c-.2.3-.2.5 0 .7.2.2.3.2.8.2 1 .1 2 .4 2.8.9.6.3 1.5 1.2 2 1.8.5 1 1 2.2 1 3.2 0 .3 0 .4.2.5.2.3.5.3.7 0 .2-.1.2-.2.2-.9a7.2 7.2 0 0 0-6.8-6.6h-.7l-.2.2z"/>
    </symbol>
    <symbol id="icon-icecream" viewBox="0 0 16 32">
      <path d="m8.1.1.2 1.6a3 3 0 0 1-.8 2.1c-.4.5-.9.8-2 1.2a6 6 0 0 0-2.2 1.3c-.6.6-1 1.2-1 2-.2.7 0 1.3.4 1.6l.2.2-.4.2a12 12 0 0 0-2 1.8c-.4.6-.4 1.1 0 1.4h.3l-.3.3c-.3.3-.4.6-.3 1.2L0 16v.7c.2.3.6.7 1 .8l.2.8a131 131 0 0 1 .2 4.6l.2.3c.4.3.7.6.9 1 .2.3.4 1.2 1 4.5l.5 2.3.3.2c.5.6 1.5.8 3.2.8 1.7 0 2.7-.2 3.3-.8l.2-.2.5-2.1c.9-4.7 1-5 1.7-5.5l.4-.5.2-2.3V18l.1-.4.4-.4c.6-.4.8-.8.8-1.4 0-.7-.5-1.4-1.3-2.1l-.4-.3.2-.3c.8-1.1.3-2.7-1.2-3.7l-.5-.3.2-.2c.8-.8.9-3.2.3-4.8a7 7 0 0 0-2.3-2.9L8.2 0C8 0 8 0 8.1.1zm2 2.3.9 1.1c1 1.4 1.2 3.1.6 4.4-.2.6-1 1.3-1.6 1.8-1 .7-3.3 1.9-5 2.6-2.5 1-4 1.2-4.2.5A108.8 108.8 0 0 0 5.1 9c-1.4.8-2 .6-2-.4 0-.7.5-1.6 1.2-2l1.3-.7c1.8-.7 2.3-1 3-2a5.5 5.5 0 0 0 .8-2.1l.6.6zm1.8 7.6c.5.3 1 .8 1.2 1.2.4.6.2 1.3-.7 2.1-.9 1-2.4 1.8-4.1 2.4-1.6.5-3.1.8-5.3.8H1.7l.9.1c1 .1 3.3 0 4.1-.1a13 13 0 0 0 5.5-2c.3-.3.6-.4.7-.4.3 0 1.2.9 1.4 1.3l.1.6c0 .9-1.2 1.3-3.8 1.6-3.2.4-7.4 0-9.1-.8-.9-.4-1-.6-.8-1.2V15c0-.4 0-.5.2-.6.3-.4.9-.6 3-1.1l2-.7c1.2-.4 3.4-1.5 4.4-2.1.9-.6 1-.7 1.6-.4zm-9 8.2a24.8 24.8 0 0 0 9.3 0h.7v3.3c0 .7-.3 1.2-.5 1.4-.2.1-1.3.3-2.7.3-3 .2-6 0-7-.3-.4-.3-.5-.5-.5-3l.1-1.9.7.2zM4.7 24l1.1.2H6l-.2.3c-.4.3-.9 1-1 1.4-.3.4-.3.5-.6.3l-.3-.2-.1-.9-.2-1c0-.2-.1-.2 1 0zm7.1 0v.3l-.4 2.5a17 17 0 0 1-.8 3.8c-.3.5-1 .8-2.1 1l-1.8-.2 1.2-1.6.8.2c.7.4 1 .4 1 .2s-.2-.4-.6-.7c-.4-.3-.5-.4-.5-.6l.4-.7.8-1.1.3-.6h.3c.6.2.8.2.7 0l-.2-.4-.2-.4.8-1.5.3-.2zm-4.2.5 1.7 1.4-1.5 2.4-.3-.1-1.2-.8-.9-.6.5-1c1-1.6 1-1.5 1.2-1.5.1 0 .3 0 .5.2zm2.6.2-.6.5c-.1 0-.4-.1-.9-.5l-.4-.3H10c.5-.2.5-.2 0 .3zM5 28l2 1c.2.2.2.2 0 .4l-.3.7-.5.8c-.2.4-.3.4-.7.3-.5-.1-.7-.4-.9-.8-.2-.6-.4-2.3-.4-2.6l.8.2z"/>
    </symbol>
    <symbol id="icon-telegram" viewBox="0 0 44 32">
      <path  d="m17.3 21-.6 9c1 0 1.4-.5 1.9-1l4.5-4 9.4 6.4c1.7 1 2.9.5 3.4-1.4L42 3c.6-2.4-.9-3.3-2.6-2.7l-36.2 13C.8 14 .8 15.3 2.8 16l9.3 2.7L33.6 6c1-.6 1.9-.2 1.1.4L17.3 21z"/>
    </symbol>
    <symbol id="icon-git" viewBox="0 0 32 32">
      <path  d="M16 0A16 16 0 0 0 0 16c0 7.5 5.3 14.3 12.3 16v-5.3c-.7.2-1.4.2-2 0a4 4 0 0 1-2.4-2c-.3-.5-1-1.2-1.6-1.1l-.2-2c1.4 0 2.7 1 3.4 2.2.4.6.8 1 1.2 1 .5.2 1 .1 1.6 0 .2-1.3.7-1.7 1.1-2.3-4.1-.7-5.8-2.9-6.5-4.6a7.3 7.3 0 0 1 1.2-7v-.2c-.7-2.2.2-4 .2-4.1.8.2 1-.3 3.6 1.3l.4.3h.3c1.1-.3 2.3-.5 3.4-.5s2.3.2 3.4.5H19.7c3.2-2 3.1-1.4 4-1.6 0 .1.9 2 .2 4-.1.3 2.8 3 1.2 7.3-.7 1.7-2.4 4-6.5 4.6.5.8 1.2 1.2 1.1 2.9V32c7-1.7 12.3-8.5 12.3-16A16 16 0 0 0 16 0z"/>
    </symbol>
    <symbol id="icon-facebook" viewBox="0 0 16 32">
      <path  d="M14.1 16h-4v14.8H4V16H1v-5.3h3V7.4c0-2.5 1.1-6.2 6.2-6.2h4.5v5h-3.3c-.5 0-1.3.3-1.3 1.5v3h4.6L14 16z"/>
    </symbol>
    <symbol id="menu-close" viewBox="0 0 32 32">
      <path d="M23.734 10.304l-1.504-1.504-5.963 5.962-5.962-5.962-1.504 1.504 5.962 5.962-5.962 5.963 1.504 1.504 5.962-5.963 5.963 5.963 1.504-1.504-5.963-5.963 5.963-5.962z"></path>
      </symbol>
      <symbol id="icon-Frame-62" viewBox="0 0 82 32">
<path d="M81.414 17.414c0.781-0.781 0.781-2.047 0-2.828l-12.728-12.728c-0.781-0.781-2.047-0.781-2.828 0s-0.781 2.047 0 2.828l11.314 11.314-11.314 11.314c-0.781 0.781-0.781 2.047 0 2.828s2.047 0.781 2.828 0l12.728-12.728zM0 18h80v-4h-80v4z"></path>
</symbol>
<symbol id="icon-Arrow-hover" viewBox="0 0 102 32">
<path d="M101.414 17.414c0.781-0.781 0.781-2.047 0-2.828l-12.728-12.728c-0.781-0.781-2.047-0.781-2.828 0s-0.781 2.047 0 2.828l11.314 11.314-11.314 11.314c-0.781 0.781-0.781 2.047 0 2.828s2.047 0.781 2.828 0l12.728-12.728zM0 18h100v-4h-100v4z"></path>
</symbol>
<symbol id="icon-Arrow-focus" viewBox="0 0 69 32">
<path d="M68.081 17.414c0.781-0.781 0.781-2.047 0-2.829l-12.728-12.728c-0.781-0.781-2.047-0.781-2.828 0s-0.781 2.047 0 2.828l11.314 11.314-11.314 11.314c-0.781 0.781-0.781 2.047 0 2.828s2.047 0.781 2.828 0l12.728-12.728zM0 18h66.667v-4h-66.667v4z"></path>
</symbol>
      <symbol id="menu-open" viewBox="0 0 32 32">
        <path d="M6.4 11.734v-2.134h19.2v2.134h-19.2zM6.4 17.066h19.2v-2.133h-19.2v2.133zM6.4 22.4h19.2v-2.134h-19.2v2.134z"></path>
      </symbol>
<symbol id="icon-Vector-1" viewBox="0 0 22 32">
      <path stroke-linejoin="round" stroke-linecap="round" stroke-miterlimit="4" stroke-width="6.4" d="M3.2 3.2l15.84 12.8-15.84 12.8"></path>
</symbol>


 <!-- *иконки header*  -->

  <symbol id="logo" viewBox="0 0 35 32">
      <path d="M17.384 14.109c1.632-4.366-1.747-6.756-3.988-8.327-0.428-0.321-0.856-0.621-1.204-0.895-0.606-0.506-1.063-1.171-1.307-1.931l-0.008-0.030c-0.12-0.368-0.189-0.792-0.189-1.232 0-0.398 0.057-0.784 0.162-1.148l-0.007 0.029c0.011-0.036 0.017-0.078 0.017-0.121 0-0.132-0.057-0.251-0.148-0.333l-0-0c-0.082-0.076-0.193-0.122-0.314-0.122-0.057 0-0.111 0.010-0.161 0.029l0.003-0.001c-0.796 0.315-1.483 0.727-2.090 1.231l0.012-0.010c-0.591 0.451-1.068 1.021-1.402 1.675l-0.013 0.028c-0.319 0.625-0.507 1.362-0.509 2.143v0c-0.423 0.328-0.796 0.713-1.109 1.144-0.514 0.684-0.823 1.547-0.823 2.483 0 0.070 0.002 0.139 0.005 0.208l-0-0.010c-0.669 0.607-1.18 1.375-1.472 2.245l-0.011 0.037c-0.165 0.487-0.26 1.048-0.26 1.631 0 0.38 0.041 0.751 0.117 1.108l-0.006-0.034c-0.271 0.163-0.48 0.404-0.598 0.692l-0.003 0.010c-0.118 0.292-0.135 0.615-0.047 0.918 0.086 0.301 0.271 0.568 0.526 0.757s0.566 0.291 0.884 0.288h0.030v2.483c0 0.253 0.101 0.494 0.282 0.672s0.426 0.278 0.682 0.278h0.749l1.221 10.43c0.025 0.232 0.136 0.446 0.313 0.603s0.404 0.242 0.642 0.242h5.080c0.237 0 0.466-0.087 0.643-0.243s0.29-0.371 0.317-0.602l1.221-10.429h0.749c0.256 0 0.501-0.101 0.682-0.278 0.174-0.171 0.282-0.409 0.282-0.673 0-0 0-0 0-0v0-2.483h0.029c0.387 0 0.76-0.152 1.033-0.421s0.428-0.637 0.428-1.019c0-0.005 0-0.010 0-0.015 0-0.397-0.164-0.755-0.428-1.010l-0-0-0.013 0.004zM6.388 6.188c0.617 2.285 2.998 3.183 5.171 3.987 0.070 0.043 0.154 0.068 0.244 0.068 0.197 0 0.365-0.121 0.435-0.293l0.001-0.003c0.020-0.049 0.032-0.106 0.032-0.166 0-0.154-0.076-0.29-0.193-0.372l-0.001-0.001c-0.053-0.038-0.116-0.065-0.184-0.078l-0.003-0c-2.339-0.875-4.546-1.689-4.712-4.024-0.004-0.070-0.007-0.151-0.007-0.233 0-0.593 0.134-1.155 0.373-1.657l-0.010 0.023c0.284-0.599 0.693-1.096 1.198-1.475l0.010-0.007c0.326-0.266 0.675-0.504 1.045-0.708-0.011 0.132-0.018 0.285-0.018 0.439s0.007 0.308 0.019 0.459l-0.001-0.020c0.050 0.669 0.236 1.321 0.546 1.918 0.324 0.613 0.747 1.13 1.254 1.549l0.008 0.007c0.355 0.3 0.797 0.608 1.285 0.937 1.127 0.798 2.407 1.689 3.221 2.897 0.508 0.714 0.813 1.604 0.813 2.565 0 0.621-0.127 1.213-0.357 1.75l0.011-0.029h-1.893c-3.902 0-8.387-1.064-9.274-4.045-0.083-0.279-0.131-0.599-0.131-0.93 0-0.337 0.049-0.662 0.141-0.969l-0.006 0.024c0.19-0.635 0.54-1.174 1.004-1.589l0.003-0.003-0.022-0.021zM9.901 20.583l1.432 1.41-1.432 1.411-1.431-1.419 1.432-1.401zM13.182 24.285l-1.182 1.165-1.432-1.411 1.432-1.406 1.242 1.221-0.060 0.43zM9.901 27.52l-1.431-1.411 1.432-1.41 1.43 1.41-1.431 1.411zM9.245 24.049l-1.431 1.411-1.191-1.173-0.051-0.422 1.242-1.221 1.431 1.406zM7.155 26.109l-0.287 0.283-0.073-0.642 0.36 0.359zM7.005 27.554l0.809-0.798 1.572 1.563c0.008 0.031 0.018 0.062 0.029 0.093h-2.312l-0.099-0.857zM11.991 26.755l0.81 0.798-0.099 0.845h-2.377l1.667-1.642zM12.934 26.393l-0.287-0.284 0.364-0.359-0.077 0.642zM13.362 22.702l-0.715-0.718 0.908-0.895-0.193 1.613zM11.987 21.342l-1.358-1.334h2.716l-1.357 1.334zM7.811 21.342l-1.358-1.334h2.716l-1.357 1.334zM12.437 30.361h-5.077c-0.016-0.002-0.028-0.014-0.030-0.029l-0-0-0.12-1.013h5.38l-0.115 1.013c-0.001 0.009-0.005 0.017-0.012 0.022l-0 0c-0.006 0.005-0.014 0.008-0.023 0.008-0 0-0 0-0 0v0h-0.004zM16.365 15.651h-1.491c-0.013-0.001-0.028-0.002-0.044-0.002-0.121 0-0.232 0.046-0.315 0.12l0-0c-0.093 0.084-0.152 0.206-0.152 0.341 0 0.067 0.014 0.131 0.040 0.188l-0.001-0.003c0.054 0.119 0.154 0.21 0.276 0.25l0.003 0.001c0.044 0.015 0.094 0.023 0.146 0.023 0.016 0 0.032-0.001 0.047-0.002l-0.002 0h0.531v2.483c-0.002 0.017-0.016 0.029-0.033 0.029-0 0-0 0-0 0v0h-10.955c-0 0-0 0-0 0-0.017 0-0.031-0.013-0.033-0.029l-0-0v-2.483h8.485c0.12-0.011 0.225-0.066 0.301-0.148l0-0c0.075-0.081 0.121-0.19 0.121-0.309s-0.046-0.228-0.121-0.31l0 0c-0.076-0.082-0.181-0.137-0.299-0.149l-0.002-0h-9.425c-0.014 0.001-0.030 0.002-0.047 0.002-0.138 0-0.264-0.052-0.359-0.137l0.001 0c-0.106-0.096-0.172-0.234-0.173-0.387v-0c0 0 0-0 0-0 0-0.153 0.066-0.291 0.172-0.385l0.001-0c0.094-0.085 0.22-0.137 0.357-0.137 0.017 0 0.034 0.001 0.051 0.002l-0.002-0h0.973c0.12-0.012 0.224-0.067 0.3-0.149l0-0c0.075-0.081 0.121-0.19 0.121-0.309s-0.046-0.228-0.121-0.31l0 0c-0.076-0.082-0.181-0.137-0.299-0.148l-0.002-0h-0.855c-0.050-0.252-0.079-0.541-0.079-0.837 0-0.391 0.050-0.771 0.145-1.133l-0.007 0.031c0.174-0.668 0.476-1.249 0.881-1.743l-0.006 0.008c0.3 0.92 1.070 2.178 2.998 3.179 1.812 0.933 4.211 1.41 7.128 1.41h1.714c0.014-0.001 0.030-0.002 0.047-0.002 0.138 0 0.264 0.052 0.359 0.137l-0-0c0.106 0.096 0.172 0.234 0.173 0.387v0c0 0 0 0.001 0 0.001 0 0.153-0.067 0.29-0.172 0.385l-0 0c-0.094 0.085-0.219 0.137-0.357 0.137-0.017 0-0.034-0.001-0.051-0.002l0.002 0h0.029zM19.859 28.392l-0.342 0.525 0.008 0.004 0.335-0.529zM23.54 28.568l0.627-0.013-0.017-0.724-0.714 0.12 0.105 0.617zM23.583 30.495l0.16 0.606 0.477-0.126-0.011-0.493-0.627 0.013zM18.752 30.588l0.141-0.611h-0.004l-0.136 0.611zM16.367 29.523v0zM15.505 27.565l0.626 0.003v-0.003h-0.626zM15.804 26.196l-0.562-0.277v0.002l0.562 0.275zM17.724 24.557l0.223 0.586 0.002-0.001-0.224-0.585zM23.877 24.397l0.624 0.049 0.042-0.529-0.515-0.127-0.151 0.607zM23.724 26.361l-0.116 0.615 0.686 0.131 0.055-0.697-0.625-0.048zM22.055 25.558c-0.94 0-1.731 0.1-2.307 0.354-0.296 0.13-0.564 0.313-0.76 0.572-0.187 0.244-0.299 0.554-0.299 0.89 0 0.005 0 0.011 0 0.016v-0.001h1.253c0-0.073 0.017-0.115 0.044-0.149 0.033-0.042 0.106-0.11 0.267-0.181 0.337-0.148 0.916-0.248 1.802-0.248v-1.253zM18.688 27.389c0 0.644 0.289 1.176 0.829 1.528l0.683-1.049c-0.185-0.121-0.259-0.259-0.259-0.478h-1.253zM19.524 28.921c0.511 0.323 1.187 0.445 1.944 0.445v-1.253c-0.654 0-1.052-0.11-1.274-0.251l-0.669 1.058zM21.468 29.367c0.743 0 1.469-0.061 2.178-0.18l-0.21-1.235c-0.585 0.103-1.259 0.163-1.947 0.163-0.007 0-0.015 0-0.022-0h0.001v1.253zM22.915 28.583l0.042 1.927 1.253-0.028-0.043-1.927-1.252 0.028zM23.424 29.89c-0.716 0.189-1.506 0.285-2.372 0.285v1.252c0.96 0 1.858-0.107 2.691-0.327l-0.319-1.211zM21.053 30.175c-0.884 0-1.6-0.070-2.159-0.199l-0.281 1.221c0.681 0.157 1.499 0.23 2.44 0.23v-1.252zM18.889 29.976c-0.598-0.133-1.029-0.275-1.317-0.416l-0.55 1.125c0.413 0.202 0.952 0.371 1.594 0.514l0.273-1.223zM17.572 29.56c-0.305-0.147-0.568-0.319-0.806-0.518l0.006 0.005-0.81 0.955c0.313 0.265 0.668 0.493 1.061 0.684l0.549-1.125zM16.772 29.045c-0.426-0.36-0.644-0.83-0.64-1.476l-1.253-0.006c-0.005 0.985 0.352 1.819 1.085 2.438l0.808-0.957zM16.132 27.565c0-0.421 0.082-0.781 0.236-1.095l-1.126-0.551c-0.23 0.468-0.364 1.018-0.364 1.6 0 0.016 0 0.032 0 0.048l-0-0.002h1.252zM16.367 26.472c0.285-0.579 0.788-1.029 1.581-1.331l-0.445-1.171c-1.034 0.392-1.811 1.036-2.26 1.948l1.124 0.553zM17.95 25.142c0.833-0.32 1.763-0.485 2.796-0.485v-1.252c-1.168 0-2.252 0.186-3.245 0.568l0.45 1.17zM20.746 24.657c1.054 0 2.047 0.118 2.981 0.349l0.301-1.215c-0.966-0.245-2.074-0.386-3.216-0.386-0.023 0-0.046 0-0.069 0h0.004v1.253zM23.253 24.349l-0.152 1.963 1.249 0.098 0.152-1.964-1.248-0.097zM23.842 25.746c-0.533-0.112-1.149-0.18-1.78-0.189l-0.006-0v1.253c0.44 0 0.957 0.053 1.553 0.166l0.233-1.229zM29.952 26.746l-0.003 0.627 0.637 0.003-0.007-0.637-0.627 0.007zM29.683 25.933l-0.426 0.459 0.006 0.005 0.421-0.463zM28.124 25.994l0.434 0.452 0.004-0.005-0.438-0.447zM27.745 26.734l-0.618-0.101-0.12 0.723 0.733 0.004 0.003-0.627zM32.349 30.073l0.379 0.499 0.225-0.171 0.021-0.281-0.625-0.047zM30.998 30.575l-0.135-0.612-0.003 0.001 0.138 0.611zM26.301 30.403l-0.213 0.589 0.005 0.002 0.208-0.591zM25.231 29.835l-0.389 0.491 0.008 0.006 0.381-0.497zM24.515 28.936l-0.562 0.278 0.002 0.003 0.56-0.28zM25.249 25.138v0zM30.973 24.459l0.25-0.574-0.006-0.003-0.244 0.577zM32.41 25.78l-0.563 0.274 0.002 0.003 0.561-0.278zM32.655 26.875l0.625 0.045 0.002-0.023v-0.023h-0.627zM32.582 27.884l-0.003 0.627 0.585 0.003 0.042-0.584-0.624-0.045zM27.622 27.859l0.003-0.627-0.817-0.003 0.208 0.79 0.605-0.16zM28.332 28.734l-0.309 0.545 0.003 0.002 0.306-0.547zM32.136 28.52v-0.626h-0.125l-0.115 0.048 0.241 0.578zM32.466 28.52l0.625 0.047 0.051-0.674h-0.675v0.627zM30.579 26.739c-0.005-0.453-0.109-0.939-0.475-1.271l-0.842 0.928c-0.007-0.007 0.008 0.002 0.025 0.056 0.019 0.057 0.037 0.153 0.039 0.301l1.253-0.013zM30.109 25.474c-0.328-0.305-0.76-0.406-1.185-0.406v1.253c0.244 0 0.318 0.059 0.333 0.071l0.852-0.918zM28.925 25.068c-0.467 0-0.9 0.147-1.24 0.479l0.877 0.894c0.068-0.067 0.168-0.12 0.362-0.12v-1.253zM27.689 25.542c-0.294 0.283-0.497 0.659-0.562 1.080l-0.001 0.011 1.236 0.203c0.020-0.154 0.091-0.289 0.195-0.39l0-0-0.867-0.904zM27.741 27.361l2.208 0.012 0.007-1.252-2.208-0.013-0.007 1.252zM31.971 29.575c-0.137 0.104-0.472 0.248-1.108 0.388l0.269 1.224c0.661-0.146 1.227-0.335 1.595-0.615l-0.756-0.997zM30.86 29.964c-0.525 0.127-1.129 0.202-1.75 0.205h-0.002v1.253c0.662 0 1.339-0.080 2.028-0.236l-0.276-1.221zM29.108 30.168c-0.59 0-1.076-0.028-1.464-0.080l-0.168 1.241c0.461 0.062 1.006 0.092 1.631 0.092v-1.253zM27.645 30.088c-0.381-0.051-0.758-0.143-1.135-0.275l-0.417 1.181c0.455 0.16 0.917 0.273 1.384 0.335l0.168-1.241zM26.515 29.815c-0.345-0.121-0.644-0.282-0.911-0.483l0.009 0.006-0.762 0.994c0.356 0.274 0.772 0.492 1.238 0.66l0.427-1.177zM25.619 29.343c-0.227-0.185-0.411-0.414-0.539-0.675l-0.005-0.012-1.12 0.56c0.22 0.441 0.514 0.815 0.887 1.11l0.777-0.982zM25.076 28.659c-0.131-0.267-0.211-0.61-0.211-1.050h-1.253c0 0.588 0.105 1.129 0.34 1.605l1.123-0.556zM24.866 27.608c0-0.44 0.080-0.829 0.23-1.176l-1.149-0.499c-0.211 0.482-0.334 1.043-0.334 1.634 0 0.014 0 0.028 0 0.043l-0-0.002h1.253zM25.096 26.433c0.158-0.364 0.351-0.632 0.57-0.827l-0.834-0.936c-0.376 0.335-0.668 0.764-0.885 1.264l1.149 0.499zM25.666 25.605c0.674-0.6 1.7-0.947 3.179-0.947v-1.253c-1.659 0-3.030 0.39-4.013 1.266l0.834 0.935zM28.845 24.658c0.664 0 1.29 0.126 1.884 0.378l0.489-1.154c-0.693-0.302-1.501-0.478-2.35-0.478-0.008 0-0.016 0-0.025 0h0.001v1.253zM30.723 25.033c0.555 0.242 0.913 0.584 1.125 1.021l1.126-0.547c-0.359-0.739-0.958-1.276-1.75-1.622l-0.501 1.149zM31.849 26.057c0.117 0.237 0.179 0.505 0.179 0.817h1.253c0-0.487-0.101-0.947-0.31-1.371l-1.123 0.554zM32.030 26.829l-0.073 1.009 1.25 0.091 0.073-1.009-1.25-0.091zM32.585 27.257l-4.96-0.024-0.007 1.253 4.96 0.024 0.007-1.253zM27.016 28.019c0.147 0.555 0.504 0.976 1.007 1.26l0.616-1.091c-0.248-0.14-0.362-0.302-0.412-0.488l-1.211 0.319zM28.025 29.281c0.509 0.284 1.144 0.397 1.853 0.397v-1.252c-0.595 0-0.99-0.099-1.241-0.239l-0.611 1.094zM29.878 29.678c0.762 0 1.599-0.206 2.499-0.58l-0.482-1.156c-0.805 0.335-1.474 0.484-2.016 0.484v1.252zM32.135 29.146h0.331v-1.252h-0.33v1.252zM31.841 28.473l-0.116 1.554 1.25 0.093 0.116-1.553-1.25-0.093z"></path>
    </symbol>

<symbol id="menu-shut" viewBox="0 0 32 32">
      <path d="M23.734 10.304l-1.504-1.504-5.963 5.962-5.962-5.962-1.504 1.504 5.962 5.962-5.962 5.963 1.504 1.504 5.962-5.963 5.963 5.963 1.504-1.504-5.963-5.963 5.963-5.962z"></path>
</symbol>

<symbol id="menu-open" viewBox="0 0 32 32">
        <path d="M6.4 11.734v-2.134h19.2v2.134h-19.2zM6.4 17.066h19.2v-2.133h-19.2v2.133zM6.4 22.4h19.2v-2.134h-19.2v2.134z"></path>
</symbol>

<symbol id="mark" viewBox="0 0 12 12">
      <path stroke-linejoin="round" stroke-linecap="round" stroke-miterlimit="4" stroke-width="6.4" d="M3.2 3.2l15.84 12.8-15.84 12.8"></path>
</symbol>


  </defs>
</svg>
