<?xml version="1.0" standalone="no"?>
<!DOCTYPE svg PUBLIC "-//W3C//DTD SVG 20010904//EN"
 "http://www.w3.org/TR/2001/REC-SVG-20010904/DTD/svg10.dtd">
<svg version="1.0" xmlns="http://www.w3.org/2000/svg"
 width="512.000000pt" height="512.000000pt" viewBox="0 0 512.000000 512.000000"
 preserveAspectRatio="xMidYMid meet">
<metadata>
Created by potrace 1.14, written by Peter Selinger 2001-2017
</metadata>
<g transform="translate(0.000000,512.000000) scale(0.100000,-0.100000)"
fill="#000000" stroke="none">
<path d="M2309 5116 c-2 -2 -33 -6 -69 -10 -109 -11 -230 -31 -315 -53 -33 -8
-68 -17 -77 -19 -10 -2 -26 -6 -35 -8 -76 -18 -285 -101 -412 -163 -428 -209
-793 -541 -1035 -941 -104 -171 -206 -392 -242 -522 -2 -8 -17 -62 -34 -120
-17 -58 -33 -120 -35 -139 -2 -18 -7 -41 -9 -50 -8 -25 -16 -77 -31 -191 -13
-107 -14 -617 0 -690 3 -19 13 -78 21 -130 8 -52 19 -108 24 -125 5 -16 11
-43 14 -58 17 -97 92 -306 168 -467 122 -259 281 -484 488 -690 74 -74 146
-143 159 -154 215 -167 321 -235 516 -331 216 -106 486 -193 680 -221 28 -3
59 -8 70 -11 91 -18 575 -26 720 -11 83 9 225 33 315 54 36 9 73 17 83 19 10
2 80 25 155 51 284 96 567 255 808 456 40 33 232 224 279 278 180 204 359 512
459 788 64 175 116 406 134 597 15 155 6 653 -13 725 -2 8 -6 31 -9 50 -59
393 -252 824 -517 1155 -88 110 -276 298 -384 384 -87 70 -288 204 -351 236
-21 10 -46 24 -54 30 -30 22 -208 99 -327 141 -118 42 -241 77 -313 89 -19 3
-42 8 -50 10 -17 5 -50 10 -125 21 -27 3 -59 9 -70 11 -22 6 -581 14 -586 9z"/>
</g>
</svg>
